<svg xmlns="http://www.w3.org/2000/svg" xmlns:xlink="http://www.w3.org/1999/xlink" viewBox="0,0,256,256" width="128px" height="128px"><g fill="none" fill-rule="nonzero" stroke="none" stroke-width="1" stroke-linecap="butt" stroke-linejoin="miter" stroke-miterlimit="10" stroke-dasharray="" stroke-dashoffset="0" font-family="none" font-weight="none" font-size="none" text-anchor="none" style="mix-blend-mode: normal"><g transform="scale(4,4)"><path d="M31,3c-15.46397,0 -28,12.53603 -28,28c0,15.46397 12.53603,28 28,28c15.46397,0 28,-12.53603 28,-28c0,-15.46397 -12.53603,-28 -28,-28z" fill="#f5c518"></path><path d="M12.71,52.29c2.65046,2.52102 5.76921,4.49826 9.18,5.82l34.11,-34.11v-6.43c-1.05621,-1.75012 -2.30024,-3.37976 -3.71,-4.86zM10.76,50.24l39.24,-39.24h-6l-35.78,35.78c0.75715,1.21645 1.6063,2.37316 2.54,3.46zM7.79,43.21l33.21,-33.21l-3,-2l-31.64,31.64c0.39372,1.22157 0.87153,2.41442 1.43,3.57z" fill="#ffe066"></path><path d="M31,3c-15.46397,0 -28,12.53603 -28,28c0,15.46397 12.53603,28 28,28c15.46397,0 28,-12.53603 28,-28c0,-15.46397 -12.53603,-28 -28,-28zM31,53c-9.89151,0.00157 -18.56791,-6.59855 -21.20639,-16.13167c-2.63848,-9.53312 1.40975,-19.65504 9.89448,-24.73947c8.48473,-5.08442 19.31956,-3.88108 26.48191,2.94114l0.68,0.67c0.26,0.26667 0.51,0.54 0.75,0.82c5.65876,6.50435 6.99678,15.71456 3.42275,23.56022c-3.57404,7.84566 -11.40137,12.88065 -20.02275,12.87978z" fill="#f5c518"></path><path d="M31,53c-12.15026,0 -22,-9.84974 -22,-22h-1.66c-1.18747,-0.00401 -2.31534,0.51979 -3.07839,1.42965c-0.76305,0.90987 -1.08239,2.11173 -0.87161,3.28035c2.28563,13.46288 13.94948,23.31343 27.605,23.31343c13.65552,0 25.31937,-9.85054 27.605,-23.31343c0.21047,-1.1669 -0.10762,-2.36703 -0.86841,-3.2765c-0.76079,-0.90947 -1.88587,-1.43454 -3.07159,-1.4335h-1.66c0,12.15026 -9.84974,22 -22,22z" fill="#d4a800"></path><path d="M31,2c-16.01626,0 -29,12.98374 -29,29c0,16.01626 12.98374,29 29,29c16.01626,0 29,-12.98374 29,-29c0,-16.01626 -12.98374,-29 -29,-29zM31,58c-14.91169,0 -27,-12.08831 -27,-27c0,-14.91169 12.08831,-27 27,-27c14.91169,0 27,12.08831 27,27c0,14.91169 -12.08831,27 -27,27z" fill="#30223a"></path><path d="M31,14c-5.52,0 -10,4.48 -10,10h5c0,-2.76 2.24,-5 5,-5c2.76,0 5,2.24 5,5c0,2.2 -1.2,3.4 -3.2,5c-2,1.6 -4.3,3.6 -4.3,7v2h5v-2c0,-1.8 1,-2.9 3,-4.5c2,-1.6 4.5,-3.7 4.5,-7.5c0,-5.52 -4.48,-10 -10,-10zM28.5,39h5v5h-5z" fill="#30223a"></path></g></g></svg>
